<svg height="750" viewBox="0 0 900 750" width="900" xmlns="http://www.w3.org/2000/svg" xmlns:xlink="http://www.w3.org/1999/xlink"><marker id="a" markerHeight="8" markerWidth="10" orient="auto" refX="9" refY="4"><path d="m0 0 10 4-10 4 2-4z" fill="#3b82f6"/></marker><marker id="b" markerHeight="8" markerWidth="10" orient="auto" refX="9" refY="4"><path d="m0 0 10 4-10 4 2-4z" fill="#22c55e"/></marker><marker id="c" markerHeight="6" markerWidth="8" orient="auto" refX="7" refY="3"><path d="m0 0 8 3-8 3 1.5-3z" fill="#94a3b8"/></marker><path d="m0 0h900v750h-900z" fill="#f8fafc"/><g fill="#94a3b8" font-family="'Inter', sans-serif" font-size="12" font-weight="700" letter-spacing=".1em"><text x="40" y="40">① 用户与平台层 / CLIENTS &amp; CHANNELS</text><text x="40" y="200">② 网关层 / GATEWAY</text><text x="40" y="320">③ 业务服务层 / CORE SERVICES</text><text x="40" y="480">④ 智能引擎 / AI ENGINE</text><text x="40" y="630">⑤ 基础设施 / INFRASTRUCTURE</text></g><rect fill="#f1f5f9" height="50" rx="6" stroke="#94a3b8" width="200" x="350" y="650"/><text fill="#1e293b" font-family="'Inter', sans-serif" font-size="13" font-weight="600" text-anchor="middle" x="450" y="675">Infrastructure</text><text fill="#64748b" font-family="'Inter', sans-serif" font-size="10" text-anchor="middle" x="450" y="690">PostgreSQL · Redis · Celery</text><path d="m200 130v84" fill="none" marker-end="url(#a)" stroke="#3b82f6" stroke-width="1.5"/><path d="m200 262v78" fill="none" marker-end="url(#a)" stroke="#3b82f6" stroke-width="1.5"/><text fill="#3b82f6" font-family="'Inter', sans-serif" font-size="10" font-weight="500" x="210" y="180">Webhook 回调</text><path d="m450 130v84" fill="none" marker-end="url(#a)" stroke="#3b82f6" stroke-width="2"/><path d="m450 262v78" fill="none" marker-end="url(#a)" stroke="#3b82f6" stroke-width="2"/><text fill="#3b82f6" font-family="'Inter', sans-serif" font-size="10" font-weight="500" x="455" y="300">访客请求</text><path d="m700 130v40h-220v44" fill="none" marker-end="url(#a)" stroke="#3b82f6" stroke-width="1.5"/><path d="m350 395h-50" fill="none" marker-end="url(#b)" stroke="#22c55e" stroke-width="2.5"/><text fill="#16a34a" font-family="'Inter', sans-serif" font-size="10" font-weight="500" x="305" y="388">下行回复</text><path d="m150 340v-78" fill="none" marker-end="url(#b)" stroke="#22c55e" stroke-width="2.5"/><path d="m150 214v-84" fill="none" marker-end="url(#b)" stroke="#22c55e" stroke-width="2.5"/><text fill="#16a34a" font-family="'Inter', sans-serif" font-size="10" font-weight="500" x="100" y="285">API 推送</text><path d="m550 380h50" fill="none" marker-end="url(#c)" stroke="#94a3b8" stroke-width="1.2"/><path d="m450 420v80" fill="none" marker-end="url(#c)" stroke="#94a3b8" stroke-width="1.2"/><path d="m450 570v80" fill="none" marker-end="url(#c)" stroke="#94a3b8"/></svg>